<svg xmlns="http://www.w3.org/2000/svg" viewBox="0 0 420 1120" font-family="-apple-system, system-ui, sans-serif">
  <rect width="420" height="1120" fill="#F7F5F0"/>

  <!-- Status + header -->
  <text x="20" y="28" font-size="13" font-weight="600" fill="#1A1A1A">9:41</text>
  <text x="20" y="72" font-size="32" font-weight="700" fill="#1A1A1A" letter-spacing="-0.5">Trends</text>

  <!-- Range pills -->
  <g transform="translate(20 92)">
    <rect width="60" height="32" rx="16" fill="transparent" stroke="#D8D4CB"/>
    <text x="30" y="21" text-anchor="middle" font-size="13" font-weight="600" fill="#9A9A95">Week</text>
    <rect x="68" width="66" height="32" rx="16" fill="#1A1A1A"/>
    <text x="101" y="21" text-anchor="middle" font-size="13" font-weight="600" fill="#F7F5F0">Month</text>
    <rect x="142" width="56" height="32" rx="16" fill="transparent" stroke="#D8D4CB"/>
    <text x="170" y="21" text-anchor="middle" font-size="13" font-weight="600" fill="#9A9A95">Year</text>
  </g>

  <text x="20" y="146" font-size="13" fill="#9A9A95">‹  April 2026  ›</text>

  <!-- Metric tabs -->
  <g transform="translate(20 170)">
    <text x="0" y="14" font-size="12" font-weight="600" fill="#9A9A95" letter-spacing="1">EATEN</text>
    <text x="80" y="14" font-size="12" font-weight="700" fill="#1A1A1A" letter-spacing="1">BURNED</text>
    <text x="170" y="14" font-size="12" font-weight="600" fill="#9A9A95" letter-spacing="1">ACTIVE MIN</text>
    <line x1="78" y1="22" x2="140" y2="22" stroke="#1A1A1A" stroke-width="2"/>
  </g>

  <!-- BAR CHART CARD — Running filter active, other types faded -->
  <g transform="translate(16 200)">
    <rect width="388" height="220" rx="14" fill="#FFFFFF"/>
    <text x="18" y="26" font-size="11" font-weight="700" fill="#5C5C58" letter-spacing="1.5">KCAL BURNED · RUN · AVG 190</text>

    <line x1="18" y1="150" x2="370" y2="150" stroke="#D8D4CB" stroke-dasharray="2 3"/>

    <!-- Stacked bars — Run highlighted in color, others greyed -->
    <g transform="translate(22 60)">
      <!-- day 1: run 55 -->
      <rect x="0" y="55" width="14" height="45" rx="2" fill="#5FA8C9"/>
      <rect x="0" y="40" width="14" height="15" fill="#E6E3DC"/>
      <!-- day 2: mobility only -->
      <rect x="24" y="80" width="14" height="20" rx="2" fill="#E6E3DC"/>
      <!-- day 3: strength + mobility, no run -->
      <rect x="48" y="30" width="14" height="70" rx="2" fill="#E6E3DC"/>
      <rect x="48" y="20" width="14" height="10" fill="#E6E3DC"/>
      <!-- day 4: mobility -->
      <rect x="72" y="90" width="14" height="10" rx="2" fill="#E6E3DC"/>
      <!-- day 5: run 75 -->
      <rect x="96" y="25" width="14" height="75" rx="2" fill="#5FA8C9"/>
      <!-- day 6: cycling -->
      <rect x="120" y="50" width="14" height="50" rx="2" fill="#E6E3DC"/>
      <!-- day 7: nothing -->
      <!-- day 8: strength + mobility -->
      <rect x="168" y="35" width="14" height="65" rx="2" fill="#E6E3DC"/>
      <rect x="168" y="25" width="14" height="10" fill="#E6E3DC"/>
      <!-- day 9: mobility -->
      <rect x="192" y="85" width="14" height="15" rx="2" fill="#E6E3DC"/>
      <!-- day 10: run 85 -->
      <rect x="216" y="15" width="14" height="85" rx="2" fill="#5FA8C9"/>
      <!-- day 11: hiit -->
      <rect x="240" y="45" width="14" height="55" rx="2" fill="#E6E3DC"/>
      <!-- day 12: mobility -->
      <rect x="264" y="80" width="14" height="20" rx="2" fill="#E6E3DC"/>
      <!-- day 13: cycling -->
      <rect x="288" y="30" width="14" height="70" rx="2" fill="#E6E3DC"/>
      <!-- day 14: strength -->
      <rect x="312" y="55" width="14" height="45" rx="2" fill="#E6E3DC"/>
      <!-- day 15: run 60 -->
      <rect x="336" y="40" width="14" height="60" rx="2" fill="#5FA8C9"/>
    </g>

    <!-- x-axis -->
    <g font-size="9" fill="#9A9A95">
      <text x="30" y="180">1</text>
      <text x="125" y="180">8</text>
      <text x="220" y="180">15</text>
      <text x="315" y="180">22</text>
      <text x="368" y="180">30</text>
    </g>

    <!-- Filter-active banner -->
    <g transform="translate(18 195)">
      <rect width="260" height="18" rx="9" fill="#EEF4F8" stroke="#5FA8C9"/>
      <circle cx="14" cy="9" r="4" fill="#5FA8C9"/>
      <text x="26" y="13" font-size="10" font-weight="600" fill="#1A1A1A">Showing Run only</text>
      <text x="150" y="13" font-size="10" font-weight="600" fill="#5FA8C9">× Clear</text>
    </g>
  </g>

  <!-- HEATMAP CARD — calendar grid + legend chips -->
  <g transform="translate(16 440)">
    <rect width="388" height="460" rx="14" fill="#FFFFFF"/>

    <text x="18" y="26" font-size="11" font-weight="700" fill="#5C5C58" letter-spacing="1.5">EXERCISE · APRIL</text>
    <text x="18" y="44" font-size="10" fill="#9A9A95">Tap a type to filter · tap a day to open it</text>

    <!-- Weekday header -->
    <g transform="translate(40 70)" font-size="10" font-weight="600" fill="#9A9A95">
      <text x="24" text-anchor="middle">M</text>
      <text x="72" text-anchor="middle">T</text>
      <text x="120" text-anchor="middle">W</text>
      <text x="168" text-anchor="middle">T</text>
      <text x="216" text-anchor="middle">F</text>
      <text x="264" text-anchor="middle">S</text>
      <text x="312" text-anchor="middle">S</text>
    </g>

    <!-- Calendar grid: April 2026 starts on Wed. 5 rows -->
    <!-- Each cell: 44x44, rounded. Inside: dots per type done that day. Run highlighted. -->
    <g transform="translate(42 82)">
      <!-- Row 1 (Mar 30, Mar 31, Apr 1, Apr 2, Apr 3, Apr 4, Apr 5) — only Apr days matter -->
      <rect x="0" y="0" width="44" height="44" rx="6" fill="#F7F5F0"/>
      <rect x="48" y="0" width="44" height="44" rx="6" fill="#F7F5F0"/>
      <!-- Apr 1 Wed: Run -->
      <rect x="96" y="0" width="44" height="44" rx="6" fill="#FFFFFF" stroke="#E6E3DC"/>
      <text x="102" y="13" font-size="9" fill="#9A9A95">1</text>
      <circle cx="118" cy="30" r="5" fill="#5FA8C9"/>
      <!-- Apr 2 Thu: Strength (faded) -->
      <rect x="144" y="0" width="44" height="44" rx="6" fill="#FFFFFF" stroke="#E6E3DC"/>
      <text x="150" y="13" font-size="9" fill="#9A9A95">2</text>
      <circle cx="166" cy="30" r="4" fill="#E6E3DC"/>
      <!-- Apr 3 Fri: Strength + Mobility (faded) -->
      <rect x="192" y="0" width="44" height="44" rx="6" fill="#FFFFFF" stroke="#E6E3DC"/>
      <text x="198" y="13" font-size="9" fill="#9A9A95">3</text>
      <circle cx="208" cy="30" r="4" fill="#E6E3DC"/>
      <circle cx="220" cy="30" r="4" fill="#E6E3DC"/>
      <!-- Apr 4 Sat: Mobility (faded) -->
      <rect x="240" y="0" width="44" height="44" rx="6" fill="#FFFFFF" stroke="#E6E3DC"/>
      <text x="246" y="13" font-size="9" fill="#9A9A95">4</text>
      <circle cx="262" cy="30" r="4" fill="#E6E3DC"/>
      <!-- Apr 5 Sun: Run + Mobility -->
      <rect x="288" y="0" width="44" height="44" rx="6" fill="#FFFFFF" stroke="#E6E3DC"/>
      <text x="294" y="13" font-size="9" fill="#9A9A95">5</text>
      <circle cx="304" cy="30" r="5" fill="#5FA8C9"/>
      <circle cx="316" cy="30" r="4" fill="#E6E3DC"/>

      <!-- Row 2: Apr 6–12 -->
      <g transform="translate(0 48)">
        <!-- Apr 6 Mon: Cycling (faded) -->
        <rect x="0" y="0" width="44" height="44" rx="6" fill="#FFFFFF" stroke="#E6E3DC"/>
        <text x="6" y="13" font-size="9" fill="#9A9A95">6</text>
        <circle cx="22" cy="30" r="4" fill="#E6E3DC"/>
        <!-- Apr 7 Tue: nothing -->
        <rect x="48" y="0" width="44" height="44" rx="6" fill="#FAF8F3" stroke="#ECEAE4"/>
        <text x="54" y="13" font-size="9" fill="#C6C3BC">7</text>
        <!-- Apr 8 Wed: Run + Strength (selected) -->
        <rect x="96" y="0" width="44" height="44" rx="6" fill="#FFFFFF" stroke="#5FA8C9" stroke-width="1.5"/>
        <text x="102" y="13" font-size="9" fill="#1A1A1A" font-weight="600">8</text>
        <circle cx="112" cy="30" r="5" fill="#5FA8C9"/>
        <circle cx="124" cy="30" r="4" fill="#E6E3DC"/>
        <!-- Apr 9 Thu: Mobility (faded) -->
        <rect x="144" y="0" width="44" height="44" rx="6" fill="#FFFFFF" stroke="#E6E3DC"/>
        <text x="150" y="13" font-size="9" fill="#9A9A95">9</text>
        <circle cx="166" cy="30" r="4" fill="#E6E3DC"/>
        <!-- Apr 10 Fri: Strength (faded) -->
        <rect x="192" y="0" width="44" height="44" rx="6" fill="#FFFFFF" stroke="#E6E3DC"/>
        <text x="198" y="13" font-size="9" fill="#9A9A95">10</text>
        <circle cx="214" cy="30" r="4" fill="#E6E3DC"/>
        <!-- Apr 11 Sat: HIIT (faded) -->
        <rect x="240" y="0" width="44" height="44" rx="6" fill="#FFFFFF" stroke="#E6E3DC"/>
        <text x="246" y="13" font-size="9" fill="#9A9A95">11</text>
        <circle cx="262" cy="30" r="4" fill="#E6E3DC"/>
        <!-- Apr 12 Sun: Mobility (faded) -->
        <rect x="288" y="0" width="44" height="44" rx="6" fill="#FFFFFF" stroke="#E6E3DC"/>
        <text x="294" y="13" font-size="9" fill="#9A9A95">12</text>
        <circle cx="310" cy="30" r="4" fill="#E6E3DC"/>
      </g>

      <!-- Row 3: Apr 13–19 -->
      <g transform="translate(0 96)">
        <!-- Apr 13 Mon: Cycling (faded) -->
        <rect x="0" y="0" width="44" height="44" rx="6" fill="#FFFFFF" stroke="#E6E3DC"/>
        <text x="6" y="13" font-size="9" fill="#9A9A95">13</text>
        <circle cx="22" cy="30" r="4" fill="#E6E3DC"/>
        <!-- Apr 14 Tue: Strength (faded) -->
        <rect x="48" y="0" width="44" height="44" rx="6" fill="#FFFFFF" stroke="#E6E3DC"/>
        <text x="54" y="13" font-size="9" fill="#9A9A95">14</text>
        <circle cx="70" cy="30" r="4" fill="#E6E3DC"/>
        <!-- Apr 15 Wed: Run (bold) -->
        <rect x="96" y="0" width="44" height="44" rx="6" fill="#FFFFFF" stroke="#5FA8C9" stroke-width="1.5"/>
        <text x="102" y="13" font-size="9" fill="#1A1A1A" font-weight="600">15</text>
        <circle cx="118" cy="30" r="5" fill="#5FA8C9"/>
        <!-- Apr 16 Thu: Mobility (faded) -->
        <rect x="144" y="0" width="44" height="44" rx="6" fill="#FFFFFF" stroke="#E6E3DC"/>
        <text x="150" y="13" font-size="9" fill="#9A9A95">16</text>
        <circle cx="166" cy="30" r="4" fill="#E6E3DC"/>
        <!-- Apr 17 Fri: Calis (faded) -->
        <rect x="192" y="0" width="44" height="44" rx="6" fill="#FFFFFF" stroke="#E6E3DC"/>
        <text x="198" y="13" font-size="9" fill="#9A9A95">17</text>
        <circle cx="214" cy="30" r="4" fill="#E6E3DC"/>
        <!-- Apr 18 Sat: Cycling (faded) -->
        <rect x="240" y="0" width="44" height="44" rx="6" fill="#FFFFFF" stroke="#E6E3DC"/>
        <text x="246" y="13" font-size="9" fill="#9A9A95">18</text>
        <circle cx="262" cy="30" r="4" fill="#E6E3DC"/>
        <!-- Apr 19 Sun: Run + Mobility + Strength -->
        <rect x="288" y="0" width="44" height="44" rx="6" fill="#FFFFFF" stroke="#5FA8C9" stroke-width="1.5"/>
        <text x="294" y="13" font-size="9" fill="#1A1A1A" font-weight="600">19</text>
        <circle cx="298" cy="30" r="5" fill="#5FA8C9"/>
        <circle cx="310" cy="30" r="4" fill="#E6E3DC"/>
        <circle cx="322" cy="30" r="4" fill="#E6E3DC"/>
      </g>

      <!-- Row 4: Apr 20–26 -->
      <g transform="translate(0 144)">
        <!-- Apr 20 Mon: Run (today, highlighted with double border) -->
        <rect x="0" y="0" width="44" height="44" rx="6" fill="#FFFFFF" stroke="#5FA8C9" stroke-width="1.5"/>
        <rect x="-2" y="-2" width="48" height="48" rx="7" fill="none" stroke="#1A1A1A" stroke-width="1" stroke-dasharray="2 2"/>
        <text x="6" y="13" font-size="9" fill="#1A1A1A" font-weight="700">20</text>
        <circle cx="22" cy="30" r="5" fill="#5FA8C9"/>
        <!-- Apr 21 Tue: Strength (faded) -->
        <rect x="48" y="0" width="44" height="44" rx="6" fill="#FFFFFF" stroke="#E6E3DC"/>
        <text x="54" y="13" font-size="9" fill="#9A9A95">21</text>
        <circle cx="70" cy="30" r="4" fill="#E6E3DC"/>
        <!-- Apr 22 Wed: Run -->
        <rect x="96" y="0" width="44" height="44" rx="6" fill="#FFFFFF" stroke="#5FA8C9" stroke-width="1.5"/>
        <text x="102" y="13" font-size="9" fill="#1A1A1A" font-weight="600">22</text>
        <circle cx="118" cy="30" r="5" fill="#5FA8C9"/>
        <!-- Apr 23–26: future, dimmed -->
        <rect x="144" y="0" width="44" height="44" rx="6" fill="#FAF8F3" stroke="#ECEAE4"/>
        <text x="150" y="13" font-size="9" fill="#C6C3BC">23</text>
        <rect x="192" y="0" width="44" height="44" rx="6" fill="#FAF8F3" stroke="#ECEAE4"/>
        <text x="198" y="13" font-size="9" fill="#C6C3BC">24</text>
        <rect x="240" y="0" width="44" height="44" rx="6" fill="#FAF8F3" stroke="#ECEAE4"/>
        <text x="246" y="13" font-size="9" fill="#C6C3BC">25</text>
        <rect x="288" y="0" width="44" height="44" rx="6" fill="#FAF8F3" stroke="#ECEAE4"/>
        <text x="294" y="13" font-size="9" fill="#C6C3BC">26</text>
      </g>

      <!-- Row 5: Apr 27–30 + 2 trailing May cells -->
      <g transform="translate(0 192)">
        <rect x="0" y="0" width="44" height="44" rx="6" fill="#FAF8F3" stroke="#ECEAE4"/>
        <text x="6" y="13" font-size="9" fill="#C6C3BC">27</text>
        <rect x="48" y="0" width="44" height="44" rx="6" fill="#FAF8F3" stroke="#ECEAE4"/>
        <text x="54" y="13" font-size="9" fill="#C6C3BC">28</text>
        <rect x="96" y="0" width="44" height="44" rx="6" fill="#FAF8F3" stroke="#ECEAE4"/>
        <text x="102" y="13" font-size="9" fill="#C6C3BC">29</text>
        <rect x="144" y="0" width="44" height="44" rx="6" fill="#FAF8F3" stroke="#ECEAE4"/>
        <text x="150" y="13" font-size="9" fill="#C6C3BC">30</text>
        <rect x="192" y="0" width="44" height="44" rx="6" fill="#F7F5F0"/>
        <rect x="240" y="0" width="44" height="44" rx="6" fill="#F7F5F0"/>
        <rect x="288" y="0" width="44" height="44" rx="6" fill="#F7F5F0"/>
      </g>
    </g>

    <!-- Type legend chips: tap to filter. Run selected. Dynamic — these come from what's logged. -->
    <g transform="translate(18 384)">
      <text x="0" y="0" font-size="10" font-weight="600" fill="#9A9A95" letter-spacing="1">TAP TO FILTER</text>
      <!-- Run (selected) -->
      <g transform="translate(0 10)">
        <rect width="76" height="28" rx="14" fill="#5FA8C9"/>
        <circle cx="14" cy="14" r="4" fill="#FFFFFF"/>
        <text x="26" y="18" font-size="12" font-weight="700" fill="#FFFFFF">Run · 7</text>
      </g>
      <!-- Strength -->
      <g transform="translate(84 10)">
        <rect width="92" height="28" rx="14" fill="transparent" stroke="#D8D4CB"/>
        <circle cx="14" cy="14" r="4" fill="#D96B5C"/>
        <text x="26" y="18" font-size="12" font-weight="600" fill="#5C5C58">Strength · 6</text>
      </g>
      <!-- Cycling -->
      <g transform="translate(184 10)">
        <rect width="88" height="28" rx="14" fill="transparent" stroke="#D8D4CB"/>
        <circle cx="14" cy="14" r="4" fill="#7A8BD1"/>
        <text x="26" y="18" font-size="12" font-weight="600" fill="#5C5C58">Cycling · 3</text>
      </g>
      <!-- Mobility -->
      <g transform="translate(280 10)">
        <rect width="90" height="28" rx="14" fill="transparent" stroke="#D8D4CB"/>
        <circle cx="14" cy="14" r="4" fill="#5C9A6E"/>
        <text x="26" y="18" font-size="12" font-weight="600" fill="#5C5C58">Mobility · 9</text>
      </g>
      <!-- Calis -->
      <g transform="translate(0 46)">
        <rect width="72" height="28" rx="14" fill="transparent" stroke="#D8D4CB"/>
        <circle cx="14" cy="14" r="4" fill="#E0A24A"/>
        <text x="26" y="18" font-size="12" font-weight="600" fill="#5C5C58">Calis · 2</text>
      </g>
      <!-- HIIT -->
      <g transform="translate(80 46)">
        <rect width="68" height="28" rx="14" fill="transparent" stroke="#D8D4CB"/>
        <circle cx="14" cy="14" r="4" fill="#C25A8E"/>
        <text x="26" y="18" font-size="12" font-weight="600" fill="#5C5C58">HIIT · 1</text>
      </g>
      <!-- Swim (new — added automatically when user logs it) -->
      <g transform="translate(156 46)">
        <rect width="80" height="28" rx="14" fill="transparent" stroke="#D8D4CB" stroke-dasharray="3 2"/>
        <circle cx="14" cy="14" r="4" fill="#3FA3C2"/>
        <text x="26" y="18" font-size="12" font-weight="600" fill="#5C5C58">Swim · 1</text>
      </g>
    </g>
  </g>

  <!-- Callout -->
  <g transform="translate(16 920)">
    <rect width="388" height="100" rx="10" fill="#FFF8E1" stroke="#E8DFC8"/>
    <text x="14" y="22" font-size="11" font-weight="700" fill="#8A6B1A">BEHAVIOUR</text>
    <text x="14" y="42" font-size="11" fill="#5C5C58">• Tapping Run chip colors matching bars + days; others fade.</text>
    <text x="14" y="58" font-size="11" fill="#5C5C58">• Calendar layout — actual Apr 2026 with weekday columns.</text>
    <text x="14" y="74" font-size="11" fill="#5C5C58">• Chips auto-populate — log a new type, a new chip appears</text>
    <text x="14" y="88" font-size="11" fill="#5C5C58">  (Swim dashed border = newly seen this month).</text>
  </g>

  <!-- Tab bar -->
  <g transform="translate(0 1060)">
    <rect width="420" height="60" fill="#FFFFFF"/>
    <line x1="0" y1="0" x2="420" y2="0" stroke="#E8DFC8"/>
    <text x="80" y="36" text-anchor="middle" font-size="11" fill="#9A9A95">Today</text>
    <circle cx="210" cy="30" r="22" fill="#1A1A1A"/>
    <text x="210" y="37" text-anchor="middle" font-size="22" fill="#F7F5F0">+</text>
    <text x="340" y="36" text-anchor="middle" font-size="11" font-weight="700" fill="#1A1A1A">Trends</text>
  </g>
</svg>
