<svg xmlns="http://www.w3.org/2000/svg" viewBox="0 0 420 900" font-family="-apple-system, system-ui, sans-serif">
  <!-- Phone frame -->
  <rect width="420" height="900" fill="#F7F5F0"/>

  <!-- Status bar -->
  <text x="20" y="28" font-size="13" font-weight="600" fill="#1A1A1A">9:41</text>

  <!-- Header -->
  <text x="20" y="72" font-size="32" font-weight="700" fill="#1A1A1A" letter-spacing="-0.5">Trends</text>

  <!-- Range pills -->
  <g transform="translate(20 92)">
    <rect width="60" height="32" rx="16" fill="transparent" stroke="#D8D4CB"/>
    <text x="30" y="21" text-anchor="middle" font-size="13" font-weight="600" fill="#9A9A95">Week</text>
    <rect x="68" width="66" height="32" rx="16" fill="#1A1A1A"/>
    <text x="101" y="21" text-anchor="middle" font-size="13" font-weight="600" fill="#F7F5F0">Month</text>
    <rect x="142" width="56" height="32" rx="16" fill="transparent" stroke="#D8D4CB"/>
    <text x="170" y="21" text-anchor="middle" font-size="13" font-weight="600" fill="#9A9A95">Year</text>
  </g>

  <!-- Date nav -->
  <g transform="translate(20 144)">
    <text x="0" y="14" font-size="13" fill="#9A9A95">‹  April 2026  ›</text>
  </g>

  <!-- Metric tabs -->
  <g transform="translate(20 170)">
    <text x="0" y="14" font-size="12" font-weight="600" fill="#9A9A95" letter-spacing="1">EATEN</text>
    <text x="80" y="14" font-size="12" font-weight="700" fill="#1A1A1A" letter-spacing="1">BURNED</text>
    <text x="170" y="14" font-size="12" font-weight="600" fill="#9A9A95" letter-spacing="1">ACTIVE MIN</text>
    <line x1="78" y1="22" x2="140" y2="22" stroke="#1A1A1A" stroke-width="2"/>
  </g>

  <!-- Existing stacked bar chart card -->
  <g transform="translate(16 200)">
    <rect width="388" height="220" rx="14" fill="#FFFFFF"/>
    <text x="18" y="26" font-size="11" font-weight="700" fill="#5C5C58" letter-spacing="1.5">KCAL BURNED · AVG 340</text>

    <!-- Goal line -->
    <line x1="18" y1="150" x2="370" y2="150" stroke="#D8D4CB" stroke-dasharray="2 3"/>
    <text x="370" y="146" text-anchor="end" font-size="9" fill="#9A9A95">400</text>

    <!-- Sample stacked bars (15 of 30 shown) -->
    <g transform="translate(22 60)">
      <!-- bar 1 -->
      <rect x="0" y="55" width="14" height="45" rx="2" fill="#5FA8C9"/>
      <rect x="0" y="40" width="14" height="15" fill="#5C9A6E"/>
      <rect x="24" y="80" width="14" height="20" rx="2" fill="#5C9A6E"/>
      <rect x="48" y="30" width="14" height="70" rx="2" fill="#D96B5C"/>
      <rect x="48" y="20" width="14" height="10" fill="#5C9A6E"/>
      <rect x="72" y="90" width="14" height="10" rx="2" fill="#5C9A6E"/>
      <rect x="96" y="25" width="14" height="75" rx="2" fill="#5FA8C9"/>
      <rect x="120" y="50" width="14" height="50" rx="2" fill="#7A8BD1"/>
      <rect x="144" y="100" width="14" height="0" fill="#ECECE8"/>
      <rect x="168" y="35" width="14" height="65" rx="2" fill="#D96B5C"/>
      <rect x="168" y="25" width="14" height="10" fill="#5C9A6E"/>
      <rect x="192" y="85" width="14" height="15" rx="2" fill="#5C9A6E"/>
      <rect x="216" y="15" width="14" height="85" rx="2" fill="#5FA8C9"/>
      <rect x="240" y="45" width="14" height="55" rx="2" fill="#C25A8E"/>
      <rect x="264" y="80" width="14" height="20" rx="2" fill="#5C9A6E"/>
      <rect x="288" y="30" width="14" height="70" rx="2" fill="#7A8BD1"/>
      <rect x="312" y="55" width="14" height="45" rx="2" fill="#D96B5C"/>
      <rect x="336" y="40" width="14" height="60" rx="2" fill="#5FA8C9"/>
    </g>

    <!-- x-axis -->
    <g font-size="9" fill="#9A9A95">
      <text x="30" y="180">1</text>
      <text x="125" y="180">8</text>
      <text x="220" y="180">15</text>
      <text x="315" y="180">22</text>
      <text x="368" y="180">30</text>
    </g>

    <!-- Legend -->
    <g transform="translate(18 195)" font-size="9" fill="#5C5C58">
      <rect width="8" height="8" rx="2" fill="#5FA8C9"/>
      <text x="12" y="8">Run</text>
      <rect x="44" width="8" height="8" rx="2" fill="#D96B5C"/>
      <text x="56" y="8">Strength</text>
      <rect x="104" width="8" height="8" rx="2" fill="#7A8BD1"/>
      <text x="116" y="8">Cycling</text>
      <rect x="158" width="8" height="8" rx="2" fill="#5C9A6E"/>
      <text x="170" y="8">Mobility</text>
      <rect x="216" width="8" height="8" rx="2" fill="#E0A24A"/>
      <text x="228" y="8">Calis.</text>
      <rect x="260" width="8" height="8" rx="2" fill="#C25A8E"/>
      <text x="272" y="8">HIIT</text>
    </g>
  </g>

  <!-- NEW Heatmap card -->
  <g transform="translate(16 440)">
    <rect width="388" height="290" rx="14" fill="#FFFFFF" stroke="#E8DFC8" stroke-width="2" stroke-dasharray="4 3"/>

    <text x="18" y="26" font-size="11" font-weight="700" fill="#5C5C58" letter-spacing="1.5">CADENCE · APR</text>
    <text x="18" y="42" font-size="10" fill="#9A9A95">Darker = more minutes · tap a cell to open that day</text>

    <!-- Day-of-month column labels (every 5) -->
    <g transform="translate(86 58)" font-size="8" fill="#9A9A95">
      <text x="0" text-anchor="middle">1</text>
      <text x="36" text-anchor="middle">5</text>
      <text x="81" text-anchor="middle">10</text>
      <text x="126" text-anchor="middle">15</text>
      <text x="171" text-anchor="middle">20</text>
      <text x="216" text-anchor="middle">25</text>
      <text x="261" text-anchor="middle">30</text>
    </g>

    <!-- Row labels -->
    <g transform="translate(18 75)" font-size="11" font-weight="600" fill="#1A1A1A">
      <text x="0" y="11">🏃 Run</text>
      <text x="0" y="43">🏋️ Strength</text>
      <text x="0" y="75">🚴 Cycling</text>
      <text x="0" y="107">🧘 Mobility</text>
      <text x="0" y="139">🤸 Calis.</text>
      <text x="0" y="171">🔥 HIIT</text>
    </g>

    <!-- Heatmap grid: 6 rows x 30 cols -->
    <g transform="translate(82 66)">
      <!-- Run row -->
      <g id="row-run">
        <rect x="0"   y="0" width="8" height="14" rx="1.5" fill="#5FA8C9" opacity="0.85"/>
        <rect x="9"   y="0" width="8" height="14" rx="1.5" fill="#ECECE8"/>
        <rect x="18"  y="0" width="8" height="14" rx="1.5" fill="#5FA8C9" opacity="0.4"/>
        <rect x="27"  y="0" width="8" height="14" rx="1.5" fill="#ECECE8"/>
        <rect x="36"  y="0" width="8" height="14" rx="1.5" fill="#5FA8C9" opacity="0.7"/>
        <rect x="45"  y="0" width="8" height="14" rx="1.5" fill="#ECECE8"/>
        <rect x="54"  y="0" width="8" height="14" rx="1.5" fill="#5FA8C9" opacity="1"/>
        <rect x="63"  y="0" width="8" height="14" rx="1.5" fill="#5FA8C9" opacity="0.6"/>
        <rect x="72"  y="0" width="8" height="14" rx="1.5" fill="#ECECE8"/>
        <rect x="81"  y="0" width="8" height="14" rx="1.5" fill="#5FA8C9" opacity="0.4"/>
        <rect x="90"  y="0" width="8" height="14" rx="1.5" fill="#5FA8C9" opacity="0.7"/>
        <rect x="99"  y="0" width="8" height="14" rx="1.5" fill="#ECECE8"/>
        <rect x="108" y="0" width="8" height="14" rx="1.5" fill="#5FA8C9" opacity="0.85"/>
        <rect x="117" y="0" width="8" height="14" rx="1.5" fill="#ECECE8"/>
        <rect x="126" y="0" width="8" height="14" rx="1.5" fill="#5FA8C9" opacity="0.7"/>
        <rect x="135" y="0" width="8" height="14" rx="1.5" fill="#ECECE8"/>
        <rect x="144" y="0" width="8" height="14" rx="1.5" fill="#ECECE8"/>
        <rect x="153" y="0" width="8" height="14" rx="1.5" fill="#5FA8C9" opacity="0.5"/>
        <rect x="162" y="0" width="8" height="14" rx="1.5" fill="#ECECE8"/>
        <rect x="171" y="0" width="8" height="14" rx="1.5" fill="#5FA8C9" opacity="0.85"/>
        <rect x="180" y="0" width="8" height="14" rx="1.5" fill="#ECECE8"/>
        <rect x="189" y="0" width="8" height="14" rx="1.5" fill="#5FA8C9" opacity="0.6"/>
        <rect x="198" y="0" width="8" height="14" rx="1.5" fill="#ECECE8"/>
        <rect x="207" y="0" width="8" height="14" rx="1.5" fill="#5FA8C9" opacity="1"/>
        <rect x="216" y="0" width="8" height="14" rx="1.5" fill="#5FA8C9" opacity="0.5"/>
        <rect x="225" y="0" width="8" height="14" rx="1.5" fill="#ECECE8"/>
        <rect x="234" y="0" width="8" height="14" rx="1.5" fill="#5FA8C9" opacity="0.85"/>
        <rect x="243" y="0" width="8" height="14" rx="1.5" fill="#ECECE8"/>
        <rect x="252" y="0" width="8" height="14" rx="1.5" fill="#ECECE8"/>
        <rect x="261" y="0" width="8" height="14" rx="1.5" fill="#5FA8C9" opacity="0.7"/>
      </g>
      <!-- Strength row -->
      <g transform="translate(0 26)">
        <rect x="0"   y="0" width="8" height="14" rx="1.5" fill="#ECECE8"/>
        <rect x="9"   y="0" width="8" height="14" rx="1.5" fill="#D96B5C" opacity="0.85"/>
        <rect x="18"  y="0" width="8" height="14" rx="1.5" fill="#ECECE8"/>
        <rect x="27"  y="0" width="8" height="14" rx="1.5" fill="#D96B5C" opacity="0.7"/>
        <rect x="36"  y="0" width="8" height="14" rx="1.5" fill="#ECECE8"/>
        <rect x="45"  y="0" width="8" height="14" rx="1.5" fill="#D96B5C" opacity="1"/>
        <rect x="54"  y="0" width="8" height="14" rx="1.5" fill="#ECECE8"/>
        <rect x="63"  y="0" width="8" height="14" rx="1.5" fill="#ECECE8"/>
        <rect x="72"  y="0" width="8" height="14" rx="1.5" fill="#D96B5C" opacity="0.85"/>
        <rect x="81"  y="0" width="8" height="14" rx="1.5" fill="#ECECE8"/>
        <rect x="90"  y="0" width="8" height="14" rx="1.5" fill="#D96B5C" opacity="0.6"/>
        <rect x="99"  y="0" width="8" height="14" rx="1.5" fill="#ECECE8"/>
        <rect x="108" y="0" width="8" height="14" rx="1.5" fill="#D96B5C" opacity="0.7"/>
        <rect x="117" y="0" width="8" height="14" rx="1.5" fill="#ECECE8"/>
        <rect x="126" y="0" width="8" height="14" rx="1.5" fill="#D96B5C" opacity="0.85"/>
        <rect x="135" y="0" width="8" height="14" rx="1.5" fill="#ECECE8"/>
        <rect x="144" y="0" width="8" height="14" rx="1.5" fill="#ECECE8"/>
        <rect x="153" y="0" width="8" height="14" rx="1.5" fill="#D96B5C" opacity="0.7"/>
        <rect x="162" y="0" width="8" height="14" rx="1.5" fill="#ECECE8"/>
        <rect x="171" y="0" width="8" height="14" rx="1.5" fill="#D96B5C" opacity="0.5"/>
        <rect x="180" y="0" width="8" height="14" rx="1.5" fill="#ECECE8"/>
        <rect x="189" y="0" width="8" height="14" rx="1.5" fill="#ECECE8"/>
        <rect x="198" y="0" width="8" height="14" rx="1.5" fill="#D96B5C" opacity="0.85"/>
        <rect x="207" y="0" width="8" height="14" rx="1.5" fill="#ECECE8"/>
        <rect x="216" y="0" width="8" height="14" rx="1.5" fill="#D96B5C" opacity="0.7"/>
        <rect x="225" y="0" width="8" height="14" rx="1.5" fill="#ECECE8"/>
        <rect x="234" y="0" width="8" height="14" rx="1.5" fill="#ECECE8"/>
        <rect x="243" y="0" width="8" height="14" rx="1.5" fill="#D96B5C" opacity="0.6"/>
        <rect x="252" y="0" width="8" height="14" rx="1.5" fill="#ECECE8"/>
        <rect x="261" y="0" width="8" height="14" rx="1.5" fill="#D96B5C" opacity="1"/>
      </g>
      <!-- Cycling row -->
      <g transform="translate(0 52)">
        <rect x="0"   y="0" width="8" height="14" rx="1.5" fill="#ECECE8"/>
        <rect x="9"   y="0" width="8" height="14" rx="1.5" fill="#ECECE8"/>
        <rect x="18"  y="0" width="8" height="14" rx="1.5" fill="#7A8BD1" opacity="0.85"/>
        <rect x="27"  y="0" width="8" height="14" rx="1.5" fill="#ECECE8"/>
        <rect x="36"  y="0" width="8" height="14" rx="1.5" fill="#ECECE8"/>
        <rect x="45"  y="0" width="8" height="14" rx="1.5" fill="#7A8BD1" opacity="1"/>
        <rect x="54"  y="0" width="8" height="14" rx="1.5" fill="#ECECE8"/>
        <rect x="63"  y="0" width="8" height="14" rx="1.5" fill="#ECECE8"/>
        <rect x="72"  y="0" width="8" height="14" rx="1.5" fill="#ECECE8"/>
        <rect x="81"  y="0" width="8" height="14" rx="1.5" fill="#7A8BD1" opacity="0.6"/>
        <rect x="90"  y="0" width="8" height="14" rx="1.5" fill="#ECECE8"/>
        <rect x="99"  y="0" width="8" height="14" rx="1.5" fill="#ECECE8"/>
        <rect x="108" y="0" width="8" height="14" rx="1.5" fill="#ECECE8"/>
        <rect x="117" y="0" width="8" height="14" rx="1.5" fill="#7A8BD1" opacity="0.85"/>
        <rect x="126" y="0" width="8" height="14" rx="1.5" fill="#ECECE8"/>
        <rect x="135" y="0" width="8" height="14" rx="1.5" fill="#ECECE8"/>
        <rect x="144" y="0" width="8" height="14" rx="1.5" fill="#7A8BD1" opacity="0.7"/>
        <rect x="153" y="0" width="8" height="14" rx="1.5" fill="#ECECE8"/>
        <rect x="162" y="0" width="8" height="14" rx="1.5" fill="#ECECE8"/>
        <rect x="171" y="0" width="8" height="14" rx="1.5" fill="#ECECE8"/>
        <rect x="180" y="0" width="8" height="14" rx="1.5" fill="#7A8BD1" opacity="1"/>
        <rect x="189" y="0" width="8" height="14" rx="1.5" fill="#ECECE8"/>
        <rect x="198" y="0" width="8" height="14" rx="1.5" fill="#ECECE8"/>
        <rect x="207" y="0" width="8" height="14" rx="1.5" fill="#ECECE8"/>
        <rect x="216" y="0" width="8" height="14" rx="1.5" fill="#ECECE8"/>
        <rect x="225" y="0" width="8" height="14" rx="1.5" fill="#7A8BD1" opacity="0.6"/>
        <rect x="234" y="0" width="8" height="14" rx="1.5" fill="#ECECE8"/>
        <rect x="243" y="0" width="8" height="14" rx="1.5" fill="#ECECE8"/>
        <rect x="252" y="0" width="8" height="14" rx="1.5" fill="#7A8BD1" opacity="0.85"/>
        <rect x="261" y="0" width="8" height="14" rx="1.5" fill="#ECECE8"/>
      </g>
      <!-- Mobility row -->
      <g transform="translate(0 78)">
        <rect x="0"   y="0" width="8" height="14" rx="1.5" fill="#5C9A6E" opacity="0.4"/>
        <rect x="9"   y="0" width="8" height="14" rx="1.5" fill="#5C9A6E" opacity="0.4"/>
        <rect x="18"  y="0" width="8" height="14" rx="1.5" fill="#5C9A6E" opacity="0.4"/>
        <rect x="27"  y="0" width="8" height="14" rx="1.5" fill="#ECECE8"/>
        <rect x="36"  y="0" width="8" height="14" rx="1.5" fill="#5C9A6E" opacity="0.4"/>
        <rect x="45"  y="0" width="8" height="14" rx="1.5" fill="#5C9A6E" opacity="0.4"/>
        <rect x="54"  y="0" width="8" height="14" rx="1.5" fill="#ECECE8"/>
        <rect x="63"  y="0" width="8" height="14" rx="1.5" fill="#5C9A6E" opacity="0.4"/>
        <rect x="72"  y="0" width="8" height="14" rx="1.5" fill="#5C9A6E" opacity="0.4"/>
        <rect x="81"  y="0" width="8" height="14" rx="1.5" fill="#ECECE8"/>
        <rect x="90"  y="0" width="8" height="14" rx="1.5" fill="#5C9A6E" opacity="0.4"/>
        <rect x="99"  y="0" width="8" height="14" rx="1.5" fill="#5C9A6E" opacity="0.4"/>
        <rect x="108" y="0" width="8" height="14" rx="1.5" fill="#5C9A6E" opacity="0.4"/>
        <rect x="117" y="0" width="8" height="14" rx="1.5" fill="#ECECE8"/>
        <rect x="126" y="0" width="8" height="14" rx="1.5" fill="#5C9A6E" opacity="0.4"/>
        <rect x="135" y="0" width="8" height="14" rx="1.5" fill="#5C9A6E" opacity="0.4"/>
        <rect x="144" y="0" width="8" height="14" rx="1.5" fill="#ECECE8"/>
        <rect x="153" y="0" width="8" height="14" rx="1.5" fill="#5C9A6E" opacity="0.4"/>
        <rect x="162" y="0" width="8" height="14" rx="1.5" fill="#5C9A6E" opacity="0.4"/>
        <rect x="171" y="0" width="8" height="14" rx="1.5" fill="#ECECE8"/>
        <rect x="180" y="0" width="8" height="14" rx="1.5" fill="#5C9A6E" opacity="0.4"/>
        <rect x="189" y="0" width="8" height="14" rx="1.5" fill="#5C9A6E" opacity="0.4"/>
        <rect x="198" y="0" width="8" height="14" rx="1.5" fill="#5C9A6E" opacity="0.4"/>
        <rect x="207" y="0" width="8" height="14" rx="1.5" fill="#ECECE8"/>
        <rect x="216" y="0" width="8" height="14" rx="1.5" fill="#5C9A6E" opacity="0.4"/>
        <rect x="225" y="0" width="8" height="14" rx="1.5" fill="#5C9A6E" opacity="0.4"/>
        <rect x="234" y="0" width="8" height="14" rx="1.5" fill="#5C9A6E" opacity="0.4"/>
        <rect x="243" y="0" width="8" height="14" rx="1.5" fill="#ECECE8"/>
        <rect x="252" y="0" width="8" height="14" rx="1.5" fill="#5C9A6E" opacity="0.4"/>
        <rect x="261" y="0" width="8" height="14" rx="1.5" fill="#5C9A6E" opacity="0.4"/>
      </g>
      <!-- Calisthenics row -->
      <g transform="translate(0 104)">
        <rect x="0"   y="0" width="8" height="14" rx="1.5" fill="#E0A24A" opacity="0.5"/>
        <rect x="9"   y="0" width="8" height="14" rx="1.5" fill="#ECECE8"/>
        <rect x="18"  y="0" width="8" height="14" rx="1.5" fill="#ECECE8"/>
        <rect x="27"  y="0" width="8" height="14" rx="1.5" fill="#ECECE8"/>
        <rect x="36"  y="0" width="8" height="14" rx="1.5" fill="#E0A24A" opacity="0.7"/>
        <rect x="45"  y="0" width="8" height="14" rx="1.5" fill="#ECECE8"/>
        <rect x="54"  y="0" width="8" height="14" rx="1.5" fill="#ECECE8"/>
        <rect x="63"  y="0" width="8" height="14" rx="1.5" fill="#E0A24A" opacity="0.6"/>
        <rect x="72"  y="0" width="8" height="14" rx="1.5" fill="#ECECE8"/>
        <rect x="81"  y="0" width="8" height="14" rx="1.5" fill="#ECECE8"/>
        <rect x="90"  y="0" width="8" height="14" rx="1.5" fill="#E0A24A" opacity="0.85"/>
        <rect x="99"  y="0" width="8" height="14" rx="1.5" fill="#ECECE8"/>
        <rect x="108" y="0" width="8" height="14" rx="1.5" fill="#ECECE8"/>
        <rect x="117" y="0" width="8" height="14" rx="1.5" fill="#ECECE8"/>
        <rect x="126" y="0" width="8" height="14" rx="1.5" fill="#ECECE8"/>
        <rect x="135" y="0" width="8" height="14" rx="1.5" fill="#E0A24A" opacity="0.7"/>
        <rect x="144" y="0" width="8" height="14" rx="1.5" fill="#ECECE8"/>
        <rect x="153" y="0" width="8" height="14" rx="1.5" fill="#ECECE8"/>
        <rect x="162" y="0" width="8" height="14" rx="1.5" fill="#E0A24A" opacity="0.5"/>
        <rect x="171" y="0" width="8" height="14" rx="1.5" fill="#ECECE8"/>
        <rect x="180" y="0" width="8" height="14" rx="1.5" fill="#ECECE8"/>
        <rect x="189" y="0" width="8" height="14" rx="1.5" fill="#ECECE8"/>
        <rect x="198" y="0" width="8" height="14" rx="1.5" fill="#E0A24A" opacity="0.6"/>
        <rect x="207" y="0" width="8" height="14" rx="1.5" fill="#ECECE8"/>
        <rect x="216" y="0" width="8" height="14" rx="1.5" fill="#ECECE8"/>
        <rect x="225" y="0" width="8" height="14" rx="1.5" fill="#ECECE8"/>
        <rect x="234" y="0" width="8" height="14" rx="1.5" fill="#E0A24A" opacity="0.85"/>
        <rect x="243" y="0" width="8" height="14" rx="1.5" fill="#ECECE8"/>
        <rect x="252" y="0" width="8" height="14" rx="1.5" fill="#ECECE8"/>
        <rect x="261" y="0" width="8" height="14" rx="1.5" fill="#ECECE8"/>
      </g>
      <!-- HIIT row (sparse, few cells) -->
      <g transform="translate(0 130)">
        <rect x="0"   y="0" width="8" height="14" rx="1.5" fill="#ECECE8"/>
        <rect x="9"   y="0" width="8" height="14" rx="1.5" fill="#ECECE8"/>
        <rect x="18"  y="0" width="8" height="14" rx="1.5" fill="#ECECE8"/>
        <rect x="27"  y="0" width="8" height="14" rx="1.5" fill="#C25A8E" opacity="0.85"/>
        <rect x="36"  y="0" width="8" height="14" rx="1.5" fill="#ECECE8"/>
        <rect x="45"  y="0" width="8" height="14" rx="1.5" fill="#ECECE8"/>
        <rect x="54"  y="0" width="8" height="14" rx="1.5" fill="#ECECE8"/>
        <rect x="63"  y="0" width="8" height="14" rx="1.5" fill="#ECECE8"/>
        <rect x="72"  y="0" width="8" height="14" rx="1.5" fill="#ECECE8"/>
        <rect x="81"  y="0" width="8" height="14" rx="1.5" fill="#ECECE8"/>
        <rect x="90"  y="0" width="8" height="14" rx="1.5" fill="#C25A8E" opacity="1"/>
        <rect x="99"  y="0" width="8" height="14" rx="1.5" fill="#ECECE8"/>
        <rect x="108" y="0" width="8" height="14" rx="1.5" fill="#ECECE8"/>
        <rect x="117" y="0" width="8" height="14" rx="1.5" fill="#ECECE8"/>
        <rect x="126" y="0" width="8" height="14" rx="1.5" fill="#ECECE8"/>
        <rect x="135" y="0" width="8" height="14" rx="1.5" fill="#ECECE8"/>
        <rect x="144" y="0" width="8" height="14" rx="1.5" fill="#ECECE8"/>
        <rect x="153" y="0" width="8" height="14" rx="1.5" fill="#ECECE8"/>
        <rect x="162" y="0" width="8" height="14" rx="1.5" fill="#C25A8E" opacity="0.7"/>
        <rect x="171" y="0" width="8" height="14" rx="1.5" fill="#ECECE8"/>
        <rect x="180" y="0" width="8" height="14" rx="1.5" fill="#ECECE8"/>
        <rect x="189" y="0" width="8" height="14" rx="1.5" fill="#ECECE8"/>
        <rect x="198" y="0" width="8" height="14" rx="1.5" fill="#ECECE8"/>
        <rect x="207" y="0" width="8" height="14" rx="1.5" fill="#ECECE8"/>
        <rect x="216" y="0" width="8" height="14" rx="1.5" fill="#ECECE8"/>
        <rect x="225" y="0" width="8" height="14" rx="1.5" fill="#ECECE8"/>
        <rect x="234" y="0" width="8" height="14" rx="1.5" fill="#ECECE8"/>
        <rect x="243" y="0" width="8" height="14" rx="1.5" fill="#ECECE8"/>
        <rect x="252" y="0" width="8" height="14" rx="1.5" fill="#C25A8E" opacity="0.85"/>
        <rect x="261" y="0" width="8" height="14" rx="1.5" fill="#ECECE8"/>
      </g>
    </g>

    <!-- Summary strip -->
    <g transform="translate(18 260)" font-size="10" fill="#5C5C58">
      <text x="0" y="0">18 active days · 42 sessions · 1,240 min total</text>
    </g>
  </g>

  <!-- Callout -->
  <g transform="translate(16 750)">
    <rect width="388" height="40" rx="10" fill="#FFF8E1" stroke="#E8DFC8"/>
    <text x="14" y="18" font-size="11" font-weight="700" fill="#8A6B1A">NEW</text>
    <text x="52" y="18" font-size="11" fill="#5C5C58">Cadence heatmap — shows weekly rhythm the bars can't.</text>
    <text x="52" y="32" font-size="10" fill="#9A9A95">Tap any cell to jump to that day.</text>
  </g>

  <!-- Tab bar -->
  <g transform="translate(0 840)">
    <rect width="420" height="60" fill="#FFFFFF"/>
    <line x1="0" y1="0" x2="420" y2="0" stroke="#E8DFC8"/>
    <text x="80" y="36" text-anchor="middle" font-size="11" fill="#9A9A95">Today</text>
    <circle cx="210" cy="30" r="22" fill="#1A1A1A"/>
    <text x="210" y="37" text-anchor="middle" font-size="22" fill="#F7F5F0">+</text>
    <text x="340" y="36" text-anchor="middle" font-size="11" font-weight="700" fill="#1A1A1A">Trends</text>
  </g>
</svg>
